<?xml version="1.0" encoding="UTF-8"?><svg xmlns="http://www.w3.org/2000/svg" xmlns:xlink="http://www.w3.org/1999/xlink" stroke-dasharray="none" shape-rendering="auto" font-family="'Dialog'" width="1472" text-rendering="auto" fill-opacity="1" contentScriptType="text/ecmascript" color-interpolation="auto" color-rendering="auto" preserveAspectRatio="xMidYMid meet" font-size="12" fill="black" stroke="black" image-rendering="auto" stroke-miterlimit="10" zoomAndPan="magnify" version="1.0" stroke-linecap="square" stroke-linejoin="miter" contentStyleType="text/css" font-style="normal" height="579" stroke-width="1" stroke-dashoffset="0" font-weight="normal" stroke-opacity="1">
<!--Generated by the Batik Graphics2D SVG Generator-->
<defs id="genericDefs"/>
<g>
<defs id="defs1">
<clipPath clipPathUnits="userSpaceOnUse" id="clipPath1">
<path d="M34 25 L1438 25 L1438 554 L34 554 L34 25 Z"/>
</clipPath>
<clipPath clipPathUnits="userSpaceOnUse" id="clipPath2">
<path d="M-1 -1 L1473 -1 L1473 580 L-1 580 L-1 -1 Z"/>
</clipPath>
</defs>
<g font-size="15" fill="white" text-rendering="geometricPrecision" font-family="'Segoe UI'" stroke-linejoin="round" stroke="white" stroke-width="0" stroke-miterlimit="0">
<rect x="35" y="26" clip-path="url(#clipPath1)" width="1402" height="527" stroke="none"/>
</g>
<g stroke-linecap="butt" font-size="15" fill="rgb(204,204,204)" text-rendering="geometricPrecision" font-family="'Segoe UI'" stroke-dasharray="3,3" stroke="rgb(204,204,204)">
<line clip-path="url(#clipPath1)" fill="none" x1="35" x2="1437" y1="553" y2="553"/>
<line clip-path="url(#clipPath1)" fill="none" x1="35" x2="1437" y1="488" y2="488"/>
<line clip-path="url(#clipPath1)" fill="none" x1="35" x2="1437" y1="423" y2="423"/>
<line clip-path="url(#clipPath1)" fill="none" x1="35" x2="1437" y1="358" y2="358"/>
<line clip-path="url(#clipPath1)" fill="none" x1="35" x2="1437" y1="294" y2="294"/>
<line clip-path="url(#clipPath1)" fill="none" x1="35" x2="1437" y1="229" y2="229"/>
<line clip-path="url(#clipPath1)" fill="none" x1="35" x2="1437" y1="164" y2="164"/>
<line clip-path="url(#clipPath1)" fill="none" x1="35" x2="1437" y1="100" y2="100"/>
<line clip-path="url(#clipPath1)" fill="none" x1="35" x2="1437" y1="35" y2="35"/>
<rect x="35" y="368" clip-path="url(#clipPath1)" fill="rgb(0,0,139)" width="26" height="185" stroke="none"/>
<rect x="35" y="368" clip-path="url(#clipPath1)" fill="none" width="26" stroke-dasharray="none" height="185" stroke="black"/>
<rect x="61" y="174" clip-path="url(#clipPath1)" fill="rgb(0,0,139)" width="27" stroke-dasharray="none" height="379" stroke="none"/>
<rect x="61" y="174" clip-path="url(#clipPath1)" fill="none" width="27" stroke-dasharray="none" height="379" stroke="black"/>
<rect x="88" y="347" clip-path="url(#clipPath1)" fill="rgb(0,0,139)" width="26" stroke-dasharray="none" height="206" stroke="none"/>
<rect x="88" y="347" clip-path="url(#clipPath1)" fill="none" width="26" stroke-dasharray="none" height="206" stroke="black"/>
<rect x="114" y="174" clip-path="url(#clipPath1)" fill="rgb(0,0,139)" width="27" stroke-dasharray="none" height="379" stroke="none"/>
<rect x="114" y="174" clip-path="url(#clipPath1)" fill="none" width="27" stroke-dasharray="none" height="379" stroke="black"/>
<rect x="141" y="353" clip-path="url(#clipPath1)" fill="rgb(0,0,139)" width="27" stroke-dasharray="none" height="200" stroke="none"/>
<rect x="141" y="353" clip-path="url(#clipPath1)" fill="none" width="27" stroke-dasharray="none" height="200" stroke="black"/>
<rect x="168" y="198" clip-path="url(#clipPath1)" fill="rgb(0,0,139)" width="26" stroke-dasharray="none" height="355" stroke="none"/>
<rect x="168" y="198" clip-path="url(#clipPath1)" fill="none" width="26" stroke-dasharray="none" height="355" stroke="black"/>
<rect x="194" y="368" clip-path="url(#clipPath1)" fill="rgb(0,0,139)" width="27" stroke-dasharray="none" height="185" stroke="none"/>
<rect x="194" y="368" clip-path="url(#clipPath1)" fill="none" width="27" stroke-dasharray="none" height="185" stroke="black"/>
<rect x="221" y="189" clip-path="url(#clipPath1)" fill="rgb(0,0,139)" width="27" stroke-dasharray="none" height="364" stroke="none"/>
<rect x="221" y="189" clip-path="url(#clipPath1)" fill="none" width="27" stroke-dasharray="none" height="364" stroke="black"/>
<rect x="248" y="186" clip-path="url(#clipPath1)" fill="rgb(0,0,139)" width="26" stroke-dasharray="none" height="367" stroke="none"/>
<rect x="248" y="186" clip-path="url(#clipPath1)" fill="none" width="26" stroke-dasharray="none" height="367" stroke="black"/>
<rect x="274" y="380" clip-path="url(#clipPath1)" fill="rgb(0,0,139)" width="27" stroke-dasharray="none" height="173" stroke="none"/>
<rect x="274" y="380" clip-path="url(#clipPath1)" fill="none" width="27" stroke-dasharray="none" height="173" stroke="black"/>
<rect x="301" y="165" clip-path="url(#clipPath1)" fill="rgb(0,0,139)" width="26" stroke-dasharray="none" height="388" stroke="none"/>
<rect x="301" y="165" clip-path="url(#clipPath1)" fill="none" width="26" stroke-dasharray="none" height="388" stroke="black"/>
<rect x="327" y="378" clip-path="url(#clipPath1)" fill="rgb(0,0,139)" width="27" stroke-dasharray="none" height="175" stroke="none"/>
<rect x="327" y="378" clip-path="url(#clipPath1)" fill="none" width="27" stroke-dasharray="none" height="175" stroke="black"/>
<rect x="354" y="212" clip-path="url(#clipPath1)" fill="rgb(0,0,139)" width="27" stroke-dasharray="none" height="341" stroke="none"/>
<rect x="354" y="212" clip-path="url(#clipPath1)" fill="none" width="27" stroke-dasharray="none" height="341" stroke="black"/>
<rect x="381" y="386" clip-path="url(#clipPath1)" fill="rgb(0,0,139)" width="26" stroke-dasharray="none" height="167" stroke="none"/>
<rect x="381" y="386" clip-path="url(#clipPath1)" fill="none" width="26" stroke-dasharray="none" height="167" stroke="black"/>
<rect x="407" y="190" clip-path="url(#clipPath1)" fill="rgb(0,0,139)" width="27" stroke-dasharray="none" height="363" stroke="none"/>
<rect x="407" y="190" clip-path="url(#clipPath1)" fill="none" width="27" stroke-dasharray="none" height="363" stroke="black"/>
<rect x="434" y="385" clip-path="url(#clipPath1)" fill="rgb(0,0,139)" width="27" stroke-dasharray="none" height="168" stroke="none"/>
<rect x="434" y="385" clip-path="url(#clipPath1)" fill="none" width="27" stroke-dasharray="none" height="168" stroke="black"/>
<rect x="461" y="173" clip-path="url(#clipPath1)" fill="rgb(0,0,139)" width="26" stroke-dasharray="none" height="380" stroke="none"/>
<rect x="461" y="173" clip-path="url(#clipPath1)" fill="none" width="26" stroke-dasharray="none" height="380" stroke="black"/>
<rect x="487" y="192" clip-path="url(#clipPath1)" fill="rgb(0,0,139)" width="27" stroke-dasharray="none" height="361" stroke="none"/>
<rect x="487" y="192" clip-path="url(#clipPath1)" fill="none" width="27" stroke-dasharray="none" height="361" stroke="black"/>
<rect x="514" y="386" clip-path="url(#clipPath1)" fill="rgb(0,0,139)" width="26" stroke-dasharray="none" height="167" stroke="none"/>
<rect x="514" y="386" clip-path="url(#clipPath1)" fill="none" width="26" stroke-dasharray="none" height="167" stroke="black"/>
<rect x="540" y="211" clip-path="url(#clipPath1)" fill="rgb(0,0,139)" width="27" stroke-dasharray="none" height="342" stroke="none"/>
<rect x="540" y="211" clip-path="url(#clipPath1)" fill="none" width="27" stroke-dasharray="none" height="342" stroke="black"/>
<rect x="567" y="367" clip-path="url(#clipPath1)" fill="rgb(0,0,139)" width="27" stroke-dasharray="none" height="186" stroke="none"/>
<rect x="567" y="367" clip-path="url(#clipPath1)" fill="none" width="27" stroke-dasharray="none" height="186" stroke="black"/>
<rect x="594" y="196" clip-path="url(#clipPath1)" fill="rgb(0,0,139)" width="26" stroke-dasharray="none" height="357" stroke="none"/>
<rect x="594" y="196" clip-path="url(#clipPath1)" fill="none" width="26" stroke-dasharray="none" height="357" stroke="black"/>
<rect x="620" y="371" clip-path="url(#clipPath1)" fill="rgb(0,0,139)" width="27" stroke-dasharray="none" height="182" stroke="none"/>
<rect x="620" y="371" clip-path="url(#clipPath1)" fill="none" width="27" stroke-dasharray="none" height="182" stroke="black"/>
<rect x="647" y="162" clip-path="url(#clipPath1)" fill="rgb(0,0,139)" width="27" stroke-dasharray="none" height="391" stroke="none"/>
<rect x="647" y="162" clip-path="url(#clipPath1)" fill="none" width="27" stroke-dasharray="none" height="391" stroke="black"/>
<rect x="674" y="159" clip-path="url(#clipPath1)" fill="rgb(0,0,139)" width="26" stroke-dasharray="none" height="394" stroke="none"/>
<rect x="674" y="159" clip-path="url(#clipPath1)" fill="none" width="26" stroke-dasharray="none" height="394" stroke="black"/>
<rect x="700" y="366" clip-path="url(#clipPath1)" fill="rgb(0,0,139)" width="27" stroke-dasharray="none" height="187" stroke="none"/>
<rect x="700" y="366" clip-path="url(#clipPath1)" fill="none" width="27" stroke-dasharray="none" height="187" stroke="black"/>
<rect x="727" y="173" clip-path="url(#clipPath1)" fill="rgb(0,0,139)" width="26" stroke-dasharray="none" height="380" stroke="none"/>
<rect x="727" y="173" clip-path="url(#clipPath1)" fill="none" width="26" stroke-dasharray="none" height="380" stroke="black"/>
<rect x="753" y="369" clip-path="url(#clipPath1)" fill="rgb(0,0,139)" width="27" stroke-dasharray="none" height="184" stroke="none"/>
<rect x="753" y="369" clip-path="url(#clipPath1)" fill="none" width="27" stroke-dasharray="none" height="184" stroke="black"/>
<rect x="780" y="160" clip-path="url(#clipPath1)" fill="rgb(0,0,139)" width="27" stroke-dasharray="none" height="393" stroke="none"/>
<rect x="780" y="160" clip-path="url(#clipPath1)" fill="none" width="27" stroke-dasharray="none" height="393" stroke="black"/>
<rect x="807" y="356" clip-path="url(#clipPath1)" fill="rgb(0,0,139)" width="26" stroke-dasharray="none" height="197" stroke="none"/>
<rect x="807" y="356" clip-path="url(#clipPath1)" fill="none" width="26" stroke-dasharray="none" height="197" stroke="black"/>
<rect x="833" y="186" clip-path="url(#clipPath1)" fill="rgb(0,0,139)" width="27" stroke-dasharray="none" height="367" stroke="none"/>
<rect x="833" y="186" clip-path="url(#clipPath1)" fill="none" width="27" stroke-dasharray="none" height="367" stroke="black"/>
<rect x="860" y="370" clip-path="url(#clipPath1)" fill="rgb(0,0,139)" width="27" stroke-dasharray="none" height="183" stroke="none"/>
<rect x="860" y="370" clip-path="url(#clipPath1)" fill="none" width="27" stroke-dasharray="none" height="183" stroke="black"/>
<rect x="887" y="157" clip-path="url(#clipPath1)" fill="rgb(0,0,139)" width="26" stroke-dasharray="none" height="396" stroke="none"/>
<rect x="887" y="157" clip-path="url(#clipPath1)" fill="none" width="26" stroke-dasharray="none" height="396" stroke="black"/>
<rect x="913" y="160" clip-path="url(#clipPath1)" fill="rgb(0,0,139)" width="27" stroke-dasharray="none" height="393" stroke="none"/>
<rect x="913" y="160" clip-path="url(#clipPath1)" fill="none" width="27" stroke-dasharray="none" height="393" stroke="black"/>
<rect x="940" y="375" clip-path="url(#clipPath1)" fill="rgb(0,0,139)" width="27" stroke-dasharray="none" height="178" stroke="none"/>
<rect x="940" y="375" clip-path="url(#clipPath1)" fill="none" width="27" stroke-dasharray="none" height="178" stroke="black"/>
<rect x="967" y="203" clip-path="url(#clipPath1)" fill="rgb(0,0,139)" width="26" stroke-dasharray="none" height="350" stroke="none"/>
<rect x="967" y="203" clip-path="url(#clipPath1)" fill="none" width="26" stroke-dasharray="none" height="350" stroke="black"/>
<rect x="993" y="356" clip-path="url(#clipPath1)" fill="rgb(0,0,139)" width="27" stroke-dasharray="none" height="197" stroke="none"/>
<rect x="993" y="356" clip-path="url(#clipPath1)" fill="none" width="27" stroke-dasharray="none" height="197" stroke="black"/>
<rect x="1020" y="181" clip-path="url(#clipPath1)" fill="rgb(0,0,139)" width="26" stroke-dasharray="none" height="372" stroke="none"/>
<rect x="1020" y="181" clip-path="url(#clipPath1)" fill="none" width="26" stroke-dasharray="none" height="372" stroke="black"/>
<rect x="1046" y="362" clip-path="url(#clipPath1)" fill="rgb(0,0,139)" width="27" stroke-dasharray="none" height="191" stroke="none"/>
<rect x="1046" y="362" clip-path="url(#clipPath1)" fill="none" width="27" stroke-dasharray="none" height="191" stroke="black"/>
<rect x="1073" y="198" clip-path="url(#clipPath1)" fill="rgb(0,0,139)" width="27" stroke-dasharray="none" height="355" stroke="none"/>
<rect x="1073" y="198" clip-path="url(#clipPath1)" fill="none" width="27" stroke-dasharray="none" height="355" stroke="black"/>
<rect x="1100" y="184" clip-path="url(#clipPath1)" fill="rgb(0,0,139)" width="26" stroke-dasharray="none" height="369" stroke="none"/>
<rect x="1100" y="184" clip-path="url(#clipPath1)" fill="none" width="26" stroke-dasharray="none" height="369" stroke="black"/>
<line clip-path="url(#clipPath1)" fill="none" x1="1126" x2="1153" y1="553" y2="553" stroke-dasharray="none" stroke="black"/>
<line clip-path="url(#clipPath1)" fill="none" x1="1153" x2="1180" y1="553" y2="553" stroke-dasharray="none" stroke="black"/>
<line clip-path="url(#clipPath1)" fill="none" x1="1180" x2="1206" y1="553" y2="553" stroke-dasharray="none" stroke="black"/>
<line clip-path="url(#clipPath1)" fill="none" x1="1206" x2="1233" y1="553" y2="553" stroke-dasharray="none" stroke="black"/>
<line clip-path="url(#clipPath1)" fill="none" x1="1233" x2="1259" y1="553" y2="553" stroke-dasharray="none" stroke="black"/>
<line clip-path="url(#clipPath1)" fill="none" x1="1259" x2="1286" y1="553" y2="553" stroke-dasharray="none" stroke="black"/>
<line clip-path="url(#clipPath1)" fill="none" x1="1286" x2="1313" y1="553" y2="553" stroke-dasharray="none" stroke="black"/>
<line clip-path="url(#clipPath1)" fill="none" x1="1313" x2="1339" y1="553" y2="553" stroke-dasharray="none" stroke="black"/>
<line clip-path="url(#clipPath1)" fill="none" x1="1339" x2="1366" y1="553" y2="553" stroke-dasharray="none" stroke="black"/>
<line clip-path="url(#clipPath1)" fill="none" x1="1366" x2="1393" y1="553" y2="553" stroke-dasharray="none" stroke="black"/>
<line clip-path="url(#clipPath1)" fill="none" x1="1393" x2="1419" y1="553" y2="553" stroke-dasharray="none" stroke="black"/>
<rect x="35" y="26" clip-path="url(#clipPath2)" fill="none" width="1402" stroke-dasharray="none" height="527" stroke="black"/>
</g>
<g text-rendering="geometricPrecision" font-size="17" font-family="'Arial'" stroke-linecap="butt">
<line clip-path="url(#clipPath2)" fill="none" x1="35" x2="1437" y1="24" y2="24"/>
<line clip-path="url(#clipPath2)" fill="none" x1="35" x2="1437" y1="555" y2="555"/>
<line clip-path="url(#clipPath2)" fill="none" x1="35" x2="35" y1="20" y2="24"/>
<line clip-path="url(#clipPath2)" fill="none" x1="35" x2="35" y1="559" y2="555"/>
<text x="33" font-size="13" y="15" clip-path="url(#clipPath2)" stroke="none" xml:space="preserve">0</text>
<text x="33" font-size="13" y="572" clip-path="url(#clipPath2)" stroke="none" xml:space="preserve">0</text>
<line clip-path="url(#clipPath2)" fill="none" x1="61" x2="61" y1="22" y2="24"/>
<line clip-path="url(#clipPath2)" fill="none" x1="61" x2="61" y1="557" y2="555"/>
<line clip-path="url(#clipPath2)" fill="none" x1="88" x2="88" y1="20" y2="24"/>
<line clip-path="url(#clipPath2)" fill="none" x1="88" x2="88" y1="559" y2="555"/>
<text x="80" font-size="13" y="15" clip-path="url(#clipPath2)" stroke="none" xml:space="preserve">200</text>
<text x="80" font-size="13" y="572" clip-path="url(#clipPath2)" stroke="none" xml:space="preserve">200</text>
<line clip-path="url(#clipPath2)" fill="none" x1="114" x2="114" y1="22" y2="24"/>
<line clip-path="url(#clipPath2)" fill="none" x1="114" x2="114" y1="557" y2="555"/>
<line clip-path="url(#clipPath2)" fill="none" x1="141" x2="141" y1="20" y2="24"/>
<line clip-path="url(#clipPath2)" fill="none" x1="141" x2="141" y1="559" y2="555"/>
<text x="133" font-size="13" y="15" clip-path="url(#clipPath2)" stroke="none" xml:space="preserve">400</text>
<text x="133" font-size="13" y="572" clip-path="url(#clipPath2)" stroke="none" xml:space="preserve">400</text>
<line clip-path="url(#clipPath2)" fill="none" x1="168" x2="168" y1="22" y2="24"/>
<line clip-path="url(#clipPath2)" fill="none" x1="168" x2="168" y1="557" y2="555"/>
<line clip-path="url(#clipPath2)" fill="none" x1="194" x2="194" y1="20" y2="24"/>
<line clip-path="url(#clipPath2)" fill="none" x1="194" x2="194" y1="559" y2="555"/>
<text x="186" font-size="13" y="15" clip-path="url(#clipPath2)" stroke="none" xml:space="preserve">600</text>
<text x="186" font-size="13" y="572" clip-path="url(#clipPath2)" stroke="none" xml:space="preserve">600</text>
<line clip-path="url(#clipPath2)" fill="none" x1="221" x2="221" y1="22" y2="24"/>
<line clip-path="url(#clipPath2)" fill="none" x1="221" x2="221" y1="557" y2="555"/>
<line clip-path="url(#clipPath2)" fill="none" x1="248" x2="248" y1="20" y2="24"/>
<line clip-path="url(#clipPath2)" fill="none" x1="248" x2="248" y1="559" y2="555"/>
<text x="240" font-size="13" y="15" clip-path="url(#clipPath2)" stroke="none" xml:space="preserve">800</text>
<text x="240" font-size="13" y="572" clip-path="url(#clipPath2)" stroke="none" xml:space="preserve">800</text>
<line clip-path="url(#clipPath2)" fill="none" x1="274" x2="274" y1="22" y2="24"/>
<line clip-path="url(#clipPath2)" fill="none" x1="274" x2="274" y1="557" y2="555"/>
<line clip-path="url(#clipPath2)" fill="none" x1="301" x2="301" y1="20" y2="24"/>
<line clip-path="url(#clipPath2)" fill="none" x1="301" x2="301" y1="559" y2="555"/>
<text x="290" font-size="13" y="15" clip-path="url(#clipPath2)" stroke="none" xml:space="preserve">1000</text>
<text x="290" font-size="13" y="572" clip-path="url(#clipPath2)" stroke="none" xml:space="preserve">1000</text>
<line clip-path="url(#clipPath2)" fill="none" x1="327" x2="327" y1="22" y2="24"/>
<line clip-path="url(#clipPath2)" fill="none" x1="327" x2="327" y1="557" y2="555"/>
<line clip-path="url(#clipPath2)" fill="none" x1="354" x2="354" y1="20" y2="24"/>
<line clip-path="url(#clipPath2)" fill="none" x1="354" x2="354" y1="559" y2="555"/>
<text x="343" font-size="13" y="15" clip-path="url(#clipPath2)" stroke="none" xml:space="preserve">1200</text>
<text x="343" font-size="13" y="572" clip-path="url(#clipPath2)" stroke="none" xml:space="preserve">1200</text>
<line clip-path="url(#clipPath2)" fill="none" x1="381" x2="381" y1="22" y2="24"/>
<line clip-path="url(#clipPath2)" fill="none" x1="381" x2="381" y1="557" y2="555"/>
<line clip-path="url(#clipPath2)" fill="none" x1="407" x2="407" y1="20" y2="24"/>
<line clip-path="url(#clipPath2)" fill="none" x1="407" x2="407" y1="559" y2="555"/>
<text x="396" font-size="13" y="15" clip-path="url(#clipPath2)" stroke="none" xml:space="preserve">1400</text>
<text x="396" font-size="13" y="572" clip-path="url(#clipPath2)" stroke="none" xml:space="preserve">1400</text>
<line clip-path="url(#clipPath2)" fill="none" x1="434" x2="434" y1="22" y2="24"/>
<line clip-path="url(#clipPath2)" fill="none" x1="434" x2="434" y1="557" y2="555"/>
<line clip-path="url(#clipPath2)" fill="none" x1="461" x2="461" y1="20" y2="24"/>
<line clip-path="url(#clipPath2)" fill="none" x1="461" x2="461" y1="559" y2="555"/>
<text x="450" font-size="13" y="15" clip-path="url(#clipPath2)" stroke="none" xml:space="preserve">1600</text>
<text x="450" font-size="13" y="572" clip-path="url(#clipPath2)" stroke="none" xml:space="preserve">1600</text>
<line clip-path="url(#clipPath2)" fill="none" x1="487" x2="487" y1="22" y2="24"/>
<line clip-path="url(#clipPath2)" fill="none" x1="487" x2="487" y1="557" y2="555"/>
<line clip-path="url(#clipPath2)" fill="none" x1="514" x2="514" y1="20" y2="24"/>
<line clip-path="url(#clipPath2)" fill="none" x1="514" x2="514" y1="559" y2="555"/>
<text x="503" font-size="13" y="15" clip-path="url(#clipPath2)" stroke="none" xml:space="preserve">1800</text>
<text x="503" font-size="13" y="572" clip-path="url(#clipPath2)" stroke="none" xml:space="preserve">1800</text>
<line clip-path="url(#clipPath2)" fill="none" x1="540" x2="540" y1="22" y2="24"/>
<line clip-path="url(#clipPath2)" fill="none" x1="540" x2="540" y1="557" y2="555"/>
<line clip-path="url(#clipPath2)" fill="none" x1="567" x2="567" y1="20" y2="24"/>
<line clip-path="url(#clipPath2)" fill="none" x1="567" x2="567" y1="559" y2="555"/>
<text x="556" font-size="13" y="15" clip-path="url(#clipPath2)" stroke="none" xml:space="preserve">2000</text>
<text x="556" font-size="13" y="572" clip-path="url(#clipPath2)" stroke="none" xml:space="preserve">2000</text>
<line clip-path="url(#clipPath2)" fill="none" x1="594" x2="594" y1="22" y2="24"/>
<line clip-path="url(#clipPath2)" fill="none" x1="594" x2="594" y1="557" y2="555"/>
<line clip-path="url(#clipPath2)" fill="none" x1="620" x2="620" y1="20" y2="24"/>
<line clip-path="url(#clipPath2)" fill="none" x1="620" x2="620" y1="559" y2="555"/>
<text x="609" font-size="13" y="15" clip-path="url(#clipPath2)" stroke="none" xml:space="preserve">2200</text>
<text x="609" font-size="13" y="572" clip-path="url(#clipPath2)" stroke="none" xml:space="preserve">2200</text>
<line clip-path="url(#clipPath2)" fill="none" x1="647" x2="647" y1="22" y2="24"/>
<line clip-path="url(#clipPath2)" fill="none" x1="647" x2="647" y1="557" y2="555"/>
<line clip-path="url(#clipPath2)" fill="none" x1="674" x2="674" y1="20" y2="24"/>
<line clip-path="url(#clipPath2)" fill="none" x1="674" x2="674" y1="559" y2="555"/>
<text x="663" font-size="13" y="15" clip-path="url(#clipPath2)" stroke="none" xml:space="preserve">2400</text>
<text x="663" font-size="13" y="572" clip-path="url(#clipPath2)" stroke="none" xml:space="preserve">2400</text>
<line clip-path="url(#clipPath2)" fill="none" x1="700" x2="700" y1="22" y2="24"/>
<line clip-path="url(#clipPath2)" fill="none" x1="700" x2="700" y1="557" y2="555"/>
<line clip-path="url(#clipPath2)" fill="none" x1="727" x2="727" y1="20" y2="24"/>
<line clip-path="url(#clipPath2)" fill="none" x1="727" x2="727" y1="559" y2="555"/>
<text x="716" font-size="13" y="15" clip-path="url(#clipPath2)" stroke="none" xml:space="preserve">2600</text>
<text x="716" font-size="13" y="572" clip-path="url(#clipPath2)" stroke="none" xml:space="preserve">2600</text>
<line clip-path="url(#clipPath2)" fill="none" x1="753" x2="753" y1="22" y2="24"/>
<line clip-path="url(#clipPath2)" fill="none" x1="753" x2="753" y1="557" y2="555"/>
<line clip-path="url(#clipPath2)" fill="none" x1="780" x2="780" y1="20" y2="24"/>
<line clip-path="url(#clipPath2)" fill="none" x1="780" x2="780" y1="559" y2="555"/>
<text x="769" font-size="13" y="15" clip-path="url(#clipPath2)" stroke="none" xml:space="preserve">2800</text>
<text x="769" font-size="13" y="572" clip-path="url(#clipPath2)" stroke="none" xml:space="preserve">2800</text>
<line clip-path="url(#clipPath2)" fill="none" x1="807" x2="807" y1="22" y2="24"/>
<line clip-path="url(#clipPath2)" fill="none" x1="807" x2="807" y1="557" y2="555"/>
<line clip-path="url(#clipPath2)" fill="none" x1="833" x2="833" y1="20" y2="24"/>
<line clip-path="url(#clipPath2)" fill="none" x1="833" x2="833" y1="559" y2="555"/>
<text x="822" font-size="13" y="15" clip-path="url(#clipPath2)" stroke="none" xml:space="preserve">3000</text>
<text x="822" font-size="13" y="572" clip-path="url(#clipPath2)" stroke="none" xml:space="preserve">3000</text>
<line clip-path="url(#clipPath2)" fill="none" x1="860" x2="860" y1="22" y2="24"/>
<line clip-path="url(#clipPath2)" fill="none" x1="860" x2="860" y1="557" y2="555"/>
<line clip-path="url(#clipPath2)" fill="none" x1="887" x2="887" y1="20" y2="24"/>
<line clip-path="url(#clipPath2)" fill="none" x1="887" x2="887" y1="559" y2="555"/>
<text x="876" font-size="13" y="15" clip-path="url(#clipPath2)" stroke="none" xml:space="preserve">3200</text>
<text x="876" font-size="13" y="572" clip-path="url(#clipPath2)" stroke="none" xml:space="preserve">3200</text>
<line clip-path="url(#clipPath2)" fill="none" x1="913" x2="913" y1="22" y2="24"/>
<line clip-path="url(#clipPath2)" fill="none" x1="913" x2="913" y1="557" y2="555"/>
<line clip-path="url(#clipPath2)" fill="none" x1="940" x2="940" y1="20" y2="24"/>
<line clip-path="url(#clipPath2)" fill="none" x1="940" x2="940" y1="559" y2="555"/>
<text x="929" font-size="13" y="15" clip-path="url(#clipPath2)" stroke="none" xml:space="preserve">3400</text>
<text x="929" font-size="13" y="572" clip-path="url(#clipPath2)" stroke="none" xml:space="preserve">3400</text>
<line clip-path="url(#clipPath2)" fill="none" x1="967" x2="967" y1="22" y2="24"/>
<line clip-path="url(#clipPath2)" fill="none" x1="967" x2="967" y1="557" y2="555"/>
<line clip-path="url(#clipPath2)" fill="none" x1="993" x2="993" y1="20" y2="24"/>
<line clip-path="url(#clipPath2)" fill="none" x1="993" x2="993" y1="559" y2="555"/>
<text x="982" font-size="13" y="15" clip-path="url(#clipPath2)" stroke="none" xml:space="preserve">3600</text>
<text x="982" font-size="13" y="572" clip-path="url(#clipPath2)" stroke="none" xml:space="preserve">3600</text>
<line clip-path="url(#clipPath2)" fill="none" x1="1020" x2="1020" y1="22" y2="24"/>
<line clip-path="url(#clipPath2)" fill="none" x1="1020" x2="1020" y1="557" y2="555"/>
<line clip-path="url(#clipPath2)" fill="none" x1="1046" x2="1046" y1="20" y2="24"/>
<line clip-path="url(#clipPath2)" fill="none" x1="1046" x2="1046" y1="559" y2="555"/>
<text x="1035" font-size="13" y="15" clip-path="url(#clipPath2)" stroke="none" xml:space="preserve">3800</text>
<text x="1035" font-size="13" y="572" clip-path="url(#clipPath2)" stroke="none" xml:space="preserve">3800</text>
<line clip-path="url(#clipPath2)" fill="none" x1="1073" x2="1073" y1="22" y2="24"/>
<line clip-path="url(#clipPath2)" fill="none" x1="1073" x2="1073" y1="557" y2="555"/>
<line clip-path="url(#clipPath2)" fill="none" x1="1100" x2="1100" y1="20" y2="24"/>
<line clip-path="url(#clipPath2)" fill="none" x1="1100" x2="1100" y1="559" y2="555"/>
<text x="1089" font-size="13" y="15" clip-path="url(#clipPath2)" stroke="none" xml:space="preserve">4000</text>
<text x="1089" font-size="13" y="572" clip-path="url(#clipPath2)" stroke="none" xml:space="preserve">4000</text>
<line clip-path="url(#clipPath2)" fill="none" x1="1126" x2="1126" y1="22" y2="24"/>
<line clip-path="url(#clipPath2)" fill="none" x1="1126" x2="1126" y1="557" y2="555"/>
<line clip-path="url(#clipPath2)" fill="none" x1="1153" x2="1153" y1="20" y2="24"/>
<line clip-path="url(#clipPath2)" fill="none" x1="1153" x2="1153" y1="559" y2="555"/>
<text x="1142" font-size="13" y="15" clip-path="url(#clipPath2)" stroke="none" xml:space="preserve">4200</text>
<text x="1142" font-size="13" y="572" clip-path="url(#clipPath2)" stroke="none" xml:space="preserve">4200</text>
<line clip-path="url(#clipPath2)" fill="none" x1="1180" x2="1180" y1="22" y2="24"/>
<line clip-path="url(#clipPath2)" fill="none" x1="1180" x2="1180" y1="557" y2="555"/>
<line clip-path="url(#clipPath2)" fill="none" x1="1206" x2="1206" y1="20" y2="24"/>
<line clip-path="url(#clipPath2)" fill="none" x1="1206" x2="1206" y1="559" y2="555"/>
<text x="1195" font-size="13" y="15" clip-path="url(#clipPath2)" stroke="none" xml:space="preserve">4400</text>
<text x="1195" font-size="13" y="572" clip-path="url(#clipPath2)" stroke="none" xml:space="preserve">4400</text>
<line clip-path="url(#clipPath2)" fill="none" x1="1233" x2="1233" y1="22" y2="24"/>
<line clip-path="url(#clipPath2)" fill="none" x1="1233" x2="1233" y1="557" y2="555"/>
<line clip-path="url(#clipPath2)" fill="none" x1="1259" x2="1259" y1="20" y2="24"/>
<line clip-path="url(#clipPath2)" fill="none" x1="1259" x2="1259" y1="559" y2="555"/>
<text x="1248" font-size="13" y="15" clip-path="url(#clipPath2)" stroke="none" xml:space="preserve">4600</text>
<text x="1248" font-size="13" y="572" clip-path="url(#clipPath2)" stroke="none" xml:space="preserve">4600</text>
<line clip-path="url(#clipPath2)" fill="none" x1="1286" x2="1286" y1="22" y2="24"/>
<line clip-path="url(#clipPath2)" fill="none" x1="1286" x2="1286" y1="557" y2="555"/>
<line clip-path="url(#clipPath2)" fill="none" x1="1313" x2="1313" y1="20" y2="24"/>
<line clip-path="url(#clipPath2)" fill="none" x1="1313" x2="1313" y1="559" y2="555"/>
<text x="1302" font-size="13" y="15" clip-path="url(#clipPath2)" stroke="none" xml:space="preserve">4800</text>
<text x="1302" font-size="13" y="572" clip-path="url(#clipPath2)" stroke="none" xml:space="preserve">4800</text>
<line clip-path="url(#clipPath2)" fill="none" x1="1339" x2="1339" y1="22" y2="24"/>
<line clip-path="url(#clipPath2)" fill="none" x1="1339" x2="1339" y1="557" y2="555"/>
<line clip-path="url(#clipPath2)" fill="none" x1="1366" x2="1366" y1="20" y2="24"/>
<line clip-path="url(#clipPath2)" fill="none" x1="1366" x2="1366" y1="559" y2="555"/>
<text x="1355" font-size="13" y="15" clip-path="url(#clipPath2)" stroke="none" xml:space="preserve">5000</text>
<text x="1355" font-size="13" y="572" clip-path="url(#clipPath2)" stroke="none" xml:space="preserve">5000</text>
<line clip-path="url(#clipPath2)" fill="none" x1="1393" x2="1393" y1="22" y2="24"/>
<line clip-path="url(#clipPath2)" fill="none" x1="1393" x2="1393" y1="557" y2="555"/>
<line clip-path="url(#clipPath2)" fill="none" x1="1419" x2="1419" y1="20" y2="24"/>
<line clip-path="url(#clipPath2)" fill="none" x1="1419" x2="1419" y1="559" y2="555"/>
<text x="1408" font-size="13" y="15" clip-path="url(#clipPath2)" stroke="none" xml:space="preserve">5200</text>
<text x="1408" font-size="13" y="572" clip-path="url(#clipPath2)" stroke="none" xml:space="preserve">5200</text>
<line clip-path="url(#clipPath2)" fill="none" x1="33" x2="33" y1="26" y2="553"/>
<line clip-path="url(#clipPath2)" fill="none" x1="1439" x2="1439" y1="26" y2="553"/>
<line clip-path="url(#clipPath2)" fill="none" x1="29" x2="33" y1="553" y2="553"/>
<line clip-path="url(#clipPath2)" fill="none" x1="1443" x2="1439" y1="553" y2="553"/>
<text x="22" font-size="13" y="557" clip-path="url(#clipPath2)" stroke="none" xml:space="preserve">0</text>
<text x="1446" font-size="13" y="557" clip-path="url(#clipPath2)" stroke="none" xml:space="preserve">0</text>
<line clip-path="url(#clipPath2)" fill="none" x1="31" x2="33" y1="540" y2="540"/>
<line clip-path="url(#clipPath2)" fill="none" x1="1441" x2="1439" y1="540" y2="540"/>
<line clip-path="url(#clipPath2)" fill="none" x1="31" x2="33" y1="527" y2="527"/>
<line clip-path="url(#clipPath2)" fill="none" x1="1441" x2="1439" y1="527" y2="527"/>
<line clip-path="url(#clipPath2)" fill="none" x1="31" x2="33" y1="514" y2="514"/>
<line clip-path="url(#clipPath2)" fill="none" x1="1441" x2="1439" y1="514" y2="514"/>
<line clip-path="url(#clipPath2)" fill="none" x1="31" x2="33" y1="501" y2="501"/>
<line clip-path="url(#clipPath2)" fill="none" x1="1441" x2="1439" y1="501" y2="501"/>
<line clip-path="url(#clipPath2)" fill="none" x1="29" x2="33" y1="488" y2="488"/>
<line clip-path="url(#clipPath2)" fill="none" x1="1443" x2="1439" y1="488" y2="488"/>
<text x="10" font-size="13" y="492" clip-path="url(#clipPath2)" stroke="none" xml:space="preserve">100</text>
<text x="1446" font-size="13" y="492" clip-path="url(#clipPath2)" stroke="none" xml:space="preserve">100</text>
<line clip-path="url(#clipPath2)" fill="none" x1="31" x2="33" y1="475" y2="475"/>
<line clip-path="url(#clipPath2)" fill="none" x1="1441" x2="1439" y1="475" y2="475"/>
<line clip-path="url(#clipPath2)" fill="none" x1="31" x2="33" y1="462" y2="462"/>
<line clip-path="url(#clipPath2)" fill="none" x1="1441" x2="1439" y1="462" y2="462"/>
<line clip-path="url(#clipPath2)" fill="none" x1="31" x2="33" y1="449" y2="449"/>
<line clip-path="url(#clipPath2)" fill="none" x1="1441" x2="1439" y1="449" y2="449"/>
<line clip-path="url(#clipPath2)" fill="none" x1="31" x2="33" y1="436" y2="436"/>
<line clip-path="url(#clipPath2)" fill="none" x1="1441" x2="1439" y1="436" y2="436"/>
<line clip-path="url(#clipPath2)" fill="none" x1="29" x2="33" y1="423" y2="423"/>
<line clip-path="url(#clipPath2)" fill="none" x1="1443" x2="1439" y1="423" y2="423"/>
<text x="10" font-size="13" y="427" clip-path="url(#clipPath2)" stroke="none" xml:space="preserve">200</text>
<text x="1446" font-size="13" y="427" clip-path="url(#clipPath2)" stroke="none" xml:space="preserve">200</text>
<line clip-path="url(#clipPath2)" fill="none" x1="31" x2="33" y1="410" y2="410"/>
<line clip-path="url(#clipPath2)" fill="none" x1="1441" x2="1439" y1="410" y2="410"/>
<line clip-path="url(#clipPath2)" fill="none" x1="31" x2="33" y1="397" y2="397"/>
<line clip-path="url(#clipPath2)" fill="none" x1="1441" x2="1439" y1="397" y2="397"/>
<line clip-path="url(#clipPath2)" fill="none" x1="31" x2="33" y1="384" y2="384"/>
<line clip-path="url(#clipPath2)" fill="none" x1="1441" x2="1439" y1="384" y2="384"/>
<line clip-path="url(#clipPath2)" fill="none" x1="31" x2="33" y1="371" y2="371"/>
<line clip-path="url(#clipPath2)" fill="none" x1="1441" x2="1439" y1="371" y2="371"/>
<line clip-path="url(#clipPath2)" fill="none" x1="29" x2="33" y1="358" y2="358"/>
<line clip-path="url(#clipPath2)" fill="none" x1="1443" x2="1439" y1="358" y2="358"/>
<text x="10" font-size="13" y="362" clip-path="url(#clipPath2)" stroke="none" xml:space="preserve">300</text>
<text x="1446" font-size="13" y="362" clip-path="url(#clipPath2)" stroke="none" xml:space="preserve">300</text>
<line clip-path="url(#clipPath2)" fill="none" x1="31" x2="33" y1="345" y2="345"/>
<line clip-path="url(#clipPath2)" fill="none" x1="1441" x2="1439" y1="345" y2="345"/>
<line clip-path="url(#clipPath2)" fill="none" x1="31" x2="33" y1="333" y2="333"/>
<line clip-path="url(#clipPath2)" fill="none" x1="1441" x2="1439" y1="333" y2="333"/>
<line clip-path="url(#clipPath2)" fill="none" x1="31" x2="33" y1="320" y2="320"/>
<line clip-path="url(#clipPath2)" fill="none" x1="1441" x2="1439" y1="320" y2="320"/>
<line clip-path="url(#clipPath2)" fill="none" x1="31" x2="33" y1="307" y2="307"/>
<line clip-path="url(#clipPath2)" fill="none" x1="1441" x2="1439" y1="307" y2="307"/>
<line clip-path="url(#clipPath2)" fill="none" x1="29" x2="33" y1="294" y2="294"/>
<line clip-path="url(#clipPath2)" fill="none" x1="1443" x2="1439" y1="294" y2="294"/>
<text x="10" font-size="13" y="298" clip-path="url(#clipPath2)" stroke="none" xml:space="preserve">400</text>
<text x="1446" font-size="13" y="298" clip-path="url(#clipPath2)" stroke="none" xml:space="preserve">400</text>
<line clip-path="url(#clipPath2)" fill="none" x1="31" x2="33" y1="281" y2="281"/>
<line clip-path="url(#clipPath2)" fill="none" x1="1441" x2="1439" y1="281" y2="281"/>
<line clip-path="url(#clipPath2)" fill="none" x1="31" x2="33" y1="268" y2="268"/>
<line clip-path="url(#clipPath2)" fill="none" x1="1441" x2="1439" y1="268" y2="268"/>
<line clip-path="url(#clipPath2)" fill="none" x1="31" x2="33" y1="255" y2="255"/>
<line clip-path="url(#clipPath2)" fill="none" x1="1441" x2="1439" y1="255" y2="255"/>
<line clip-path="url(#clipPath2)" fill="none" x1="31" x2="33" y1="242" y2="242"/>
<line clip-path="url(#clipPath2)" fill="none" x1="1441" x2="1439" y1="242" y2="242"/>
<line clip-path="url(#clipPath2)" fill="none" x1="29" x2="33" y1="229" y2="229"/>
<line clip-path="url(#clipPath2)" fill="none" x1="1443" x2="1439" y1="229" y2="229"/>
<text x="10" font-size="13" y="233" clip-path="url(#clipPath2)" stroke="none" xml:space="preserve">500</text>
<text x="1446" font-size="13" y="233" clip-path="url(#clipPath2)" stroke="none" xml:space="preserve">500</text>
<line clip-path="url(#clipPath2)" fill="none" x1="31" x2="33" y1="216" y2="216"/>
<line clip-path="url(#clipPath2)" fill="none" x1="1441" x2="1439" y1="216" y2="216"/>
<line clip-path="url(#clipPath2)" fill="none" x1="31" x2="33" y1="203" y2="203"/>
<line clip-path="url(#clipPath2)" fill="none" x1="1441" x2="1439" y1="203" y2="203"/>
<line clip-path="url(#clipPath2)" fill="none" x1="31" x2="33" y1="190" y2="190"/>
<line clip-path="url(#clipPath2)" fill="none" x1="1441" x2="1439" y1="190" y2="190"/>
<line clip-path="url(#clipPath2)" fill="none" x1="31" x2="33" y1="177" y2="177"/>
<line clip-path="url(#clipPath2)" fill="none" x1="1441" x2="1439" y1="177" y2="177"/>
<line clip-path="url(#clipPath2)" fill="none" x1="29" x2="33" y1="164" y2="164"/>
<line clip-path="url(#clipPath2)" fill="none" x1="1443" x2="1439" y1="164" y2="164"/>
<text x="10" font-size="13" y="168" clip-path="url(#clipPath2)" stroke="none" xml:space="preserve">600</text>
<text x="1446" font-size="13" y="168" clip-path="url(#clipPath2)" stroke="none" xml:space="preserve">600</text>
<line clip-path="url(#clipPath2)" fill="none" x1="31" x2="33" y1="151" y2="151"/>
<line clip-path="url(#clipPath2)" fill="none" x1="1441" x2="1439" y1="151" y2="151"/>
<line clip-path="url(#clipPath2)" fill="none" x1="31" x2="33" y1="138" y2="138"/>
<line clip-path="url(#clipPath2)" fill="none" x1="1441" x2="1439" y1="138" y2="138"/>
<line clip-path="url(#clipPath2)" fill="none" x1="31" x2="33" y1="126" y2="126"/>
<line clip-path="url(#clipPath2)" fill="none" x1="1441" x2="1439" y1="126" y2="126"/>
<line clip-path="url(#clipPath2)" fill="none" x1="31" x2="33" y1="113" y2="113"/>
<line clip-path="url(#clipPath2)" fill="none" x1="1441" x2="1439" y1="113" y2="113"/>
<line clip-path="url(#clipPath2)" fill="none" x1="29" x2="33" y1="100" y2="100"/>
<line clip-path="url(#clipPath2)" fill="none" x1="1443" x2="1439" y1="100" y2="100"/>
<text x="10" font-size="13" y="104" clip-path="url(#clipPath2)" stroke="none" xml:space="preserve">700</text>
<text x="1446" font-size="13" y="104" clip-path="url(#clipPath2)" stroke="none" xml:space="preserve">700</text>
<line clip-path="url(#clipPath2)" fill="none" x1="31" x2="33" y1="87" y2="87"/>
<line clip-path="url(#clipPath2)" fill="none" x1="1441" x2="1439" y1="87" y2="87"/>
<line clip-path="url(#clipPath2)" fill="none" x1="31" x2="33" y1="74" y2="74"/>
<line clip-path="url(#clipPath2)" fill="none" x1="1441" x2="1439" y1="74" y2="74"/>
<line clip-path="url(#clipPath2)" fill="none" x1="31" x2="33" y1="61" y2="61"/>
<line clip-path="url(#clipPath2)" fill="none" x1="1441" x2="1439" y1="61" y2="61"/>
<line clip-path="url(#clipPath2)" fill="none" x1="31" x2="33" y1="48" y2="48"/>
<line clip-path="url(#clipPath2)" fill="none" x1="1441" x2="1439" y1="48" y2="48"/>
<line clip-path="url(#clipPath2)" fill="none" x1="29" x2="33" y1="35" y2="35"/>
<line clip-path="url(#clipPath2)" fill="none" x1="1443" x2="1439" y1="35" y2="35"/>
<text x="10" font-size="13" y="39" clip-path="url(#clipPath2)" stroke="none" xml:space="preserve">800</text>
<text x="1446" font-size="13" y="39" clip-path="url(#clipPath2)" stroke="none" xml:space="preserve">800</text>
</g>
</g>
</svg>
