<?xml version="1.0" encoding="UTF-8"?><svg xmlns="http://www.w3.org/2000/svg" xmlns:xlink="http://www.w3.org/1999/xlink" stroke-dasharray="none" shape-rendering="auto" font-family="'Dialog'" width="1472" text-rendering="auto" fill-opacity="1" contentScriptType="text/ecmascript" color-interpolation="auto" color-rendering="auto" preserveAspectRatio="xMidYMid meet" font-size="12" fill="black" stroke="black" image-rendering="auto" stroke-miterlimit="10" zoomAndPan="magnify" version="1.0" stroke-linecap="square" stroke-linejoin="miter" contentStyleType="text/css" font-style="normal" height="579" stroke-width="1" stroke-dashoffset="0" font-weight="normal" stroke-opacity="1">
<!--Generated by the Batik Graphics2D SVG Generator-->
<defs id="genericDefs"/>
<g>
<defs id="defs1">
<clipPath clipPathUnits="userSpaceOnUse" id="clipPath1">
<path d="M34 25 L1438 25 L1438 554 L34 554 L34 25 Z"/>
</clipPath>
<clipPath clipPathUnits="userSpaceOnUse" id="clipPath2">
<path d="M-1 -1 L1473 -1 L1473 580 L-1 580 L-1 -1 Z"/>
</clipPath>
</defs>
<g font-size="15" fill="white" text-rendering="geometricPrecision" font-family="'Segoe UI'" stroke-linejoin="round" stroke="white" stroke-width="0" stroke-miterlimit="0">
<rect x="35" y="26" clip-path="url(#clipPath1)" width="1402" height="527" stroke="none"/>
</g>
<g stroke-linecap="butt" font-size="15" fill="rgb(204,204,204)" text-rendering="geometricPrecision" font-family="'Segoe UI'" stroke-dasharray="3,3" stroke="rgb(204,204,204)">
<line clip-path="url(#clipPath1)" fill="none" x1="35" x2="1437" y1="553" y2="553"/>
<line clip-path="url(#clipPath1)" fill="none" x1="35" x2="1437" y1="490" y2="490"/>
<line clip-path="url(#clipPath1)" fill="none" x1="35" x2="1437" y1="427" y2="427"/>
<line clip-path="url(#clipPath1)" fill="none" x1="35" x2="1437" y1="365" y2="365"/>
<line clip-path="url(#clipPath1)" fill="none" x1="35" x2="1437" y1="302" y2="302"/>
<line clip-path="url(#clipPath1)" fill="none" x1="35" x2="1437" y1="240" y2="240"/>
<line clip-path="url(#clipPath1)" fill="none" x1="35" x2="1437" y1="177" y2="177"/>
<line clip-path="url(#clipPath1)" fill="none" x1="35" x2="1437" y1="115" y2="115"/>
<line clip-path="url(#clipPath1)" fill="none" x1="35" x2="1437" y1="52" y2="52"/>
<rect x="35" y="387" clip-path="url(#clipPath1)" fill="rgb(0,0,139)" width="27" height="166" stroke="none"/>
<rect x="35" y="387" clip-path="url(#clipPath1)" fill="none" width="27" stroke-dasharray="none" height="166" stroke="black"/>
<rect x="62" y="205" clip-path="url(#clipPath1)" fill="rgb(0,0,139)" width="27" stroke-dasharray="none" height="348" stroke="none"/>
<rect x="62" y="205" clip-path="url(#clipPath1)" fill="none" width="27" stroke-dasharray="none" height="348" stroke="black"/>
<rect x="89" y="380" clip-path="url(#clipPath1)" fill="rgb(0,0,139)" width="27" stroke-dasharray="none" height="173" stroke="none"/>
<rect x="89" y="380" clip-path="url(#clipPath1)" fill="none" width="27" stroke-dasharray="none" height="173" stroke="black"/>
<rect x="116" y="189" clip-path="url(#clipPath1)" fill="rgb(0,0,139)" width="27" stroke-dasharray="none" height="364" stroke="none"/>
<rect x="116" y="189" clip-path="url(#clipPath1)" fill="none" width="27" stroke-dasharray="none" height="364" stroke="black"/>
<rect x="143" y="382" clip-path="url(#clipPath1)" fill="rgb(0,0,139)" width="27" stroke-dasharray="none" height="171" stroke="none"/>
<rect x="143" y="382" clip-path="url(#clipPath1)" fill="none" width="27" stroke-dasharray="none" height="171" stroke="black"/>
<rect x="170" y="185" clip-path="url(#clipPath1)" fill="rgb(0,0,139)" width="27" stroke-dasharray="none" height="368" stroke="none"/>
<rect x="170" y="185" clip-path="url(#clipPath1)" fill="none" width="27" stroke-dasharray="none" height="368" stroke="black"/>
<rect x="197" y="381" clip-path="url(#clipPath1)" fill="rgb(0,0,139)" width="28" stroke-dasharray="none" height="172" stroke="none"/>
<rect x="197" y="381" clip-path="url(#clipPath1)" fill="none" width="28" stroke-dasharray="none" height="172" stroke="black"/>
<rect x="225" y="199" clip-path="url(#clipPath1)" fill="rgb(0,0,139)" width="27" stroke-dasharray="none" height="354" stroke="none"/>
<rect x="225" y="199" clip-path="url(#clipPath1)" fill="none" width="27" stroke-dasharray="none" height="354" stroke="black"/>
<rect x="252" y="212" clip-path="url(#clipPath1)" fill="rgb(0,0,139)" width="27" stroke-dasharray="none" height="341" stroke="none"/>
<rect x="252" y="212" clip-path="url(#clipPath1)" fill="none" width="27" stroke-dasharray="none" height="341" stroke="black"/>
<rect x="279" y="379" clip-path="url(#clipPath1)" fill="rgb(0,0,139)" width="27" stroke-dasharray="none" height="174" stroke="none"/>
<rect x="279" y="379" clip-path="url(#clipPath1)" fill="none" width="27" stroke-dasharray="none" height="174" stroke="black"/>
<rect x="306" y="197" clip-path="url(#clipPath1)" fill="rgb(0,0,139)" width="27" stroke-dasharray="none" height="356" stroke="none"/>
<rect x="306" y="197" clip-path="url(#clipPath1)" fill="none" width="27" stroke-dasharray="none" height="356" stroke="black"/>
<rect x="333" y="358" clip-path="url(#clipPath1)" fill="rgb(0,0,139)" width="27" stroke-dasharray="none" height="195" stroke="none"/>
<rect x="333" y="358" clip-path="url(#clipPath1)" fill="none" width="27" stroke-dasharray="none" height="195" stroke="black"/>
<rect x="360" y="210" clip-path="url(#clipPath1)" fill="rgb(0,0,139)" width="27" stroke-dasharray="none" height="343" stroke="none"/>
<rect x="360" y="210" clip-path="url(#clipPath1)" fill="none" width="27" stroke-dasharray="none" height="343" stroke="black"/>
<rect x="387" y="347" clip-path="url(#clipPath1)" fill="rgb(0,0,139)" width="28" stroke-dasharray="none" height="206" stroke="none"/>
<rect x="387" y="347" clip-path="url(#clipPath1)" fill="none" width="28" stroke-dasharray="none" height="206" stroke="black"/>
<rect x="415" y="212" clip-path="url(#clipPath1)" fill="rgb(0,0,139)" width="27" stroke-dasharray="none" height="341" stroke="none"/>
<rect x="415" y="212" clip-path="url(#clipPath1)" fill="none" width="27" stroke-dasharray="none" height="341" stroke="black"/>
<rect x="442" y="389" clip-path="url(#clipPath1)" fill="rgb(0,0,139)" width="27" stroke-dasharray="none" height="164" stroke="none"/>
<rect x="442" y="389" clip-path="url(#clipPath1)" fill="none" width="27" stroke-dasharray="none" height="164" stroke="black"/>
<rect x="469" y="227" clip-path="url(#clipPath1)" fill="rgb(0,0,139)" width="27" stroke-dasharray="none" height="326" stroke="none"/>
<rect x="469" y="227" clip-path="url(#clipPath1)" fill="none" width="27" stroke-dasharray="none" height="326" stroke="black"/>
<rect x="496" y="202" clip-path="url(#clipPath1)" fill="rgb(0,0,139)" width="27" stroke-dasharray="none" height="351" stroke="none"/>
<rect x="496" y="202" clip-path="url(#clipPath1)" fill="none" width="27" stroke-dasharray="none" height="351" stroke="black"/>
<rect x="523" y="372" clip-path="url(#clipPath1)" fill="rgb(0,0,139)" width="27" stroke-dasharray="none" height="181" stroke="none"/>
<rect x="523" y="372" clip-path="url(#clipPath1)" fill="none" width="27" stroke-dasharray="none" height="181" stroke="black"/>
<rect x="550" y="190" clip-path="url(#clipPath1)" fill="rgb(0,0,139)" width="28" stroke-dasharray="none" height="363" stroke="none"/>
<rect x="550" y="190" clip-path="url(#clipPath1)" fill="none" width="28" stroke-dasharray="none" height="363" stroke="black"/>
<rect x="578" y="375" clip-path="url(#clipPath1)" fill="rgb(0,0,139)" width="27" stroke-dasharray="none" height="178" stroke="none"/>
<rect x="578" y="375" clip-path="url(#clipPath1)" fill="none" width="27" stroke-dasharray="none" height="178" stroke="black"/>
<rect x="605" y="182" clip-path="url(#clipPath1)" fill="rgb(0,0,139)" width="27" stroke-dasharray="none" height="371" stroke="none"/>
<rect x="605" y="182" clip-path="url(#clipPath1)" fill="none" width="27" stroke-dasharray="none" height="371" stroke="black"/>
<rect x="632" y="392" clip-path="url(#clipPath1)" fill="rgb(0,0,139)" width="27" stroke-dasharray="none" height="161" stroke="none"/>
<rect x="632" y="392" clip-path="url(#clipPath1)" fill="none" width="27" stroke-dasharray="none" height="161" stroke="black"/>
<rect x="659" y="186" clip-path="url(#clipPath1)" fill="rgb(0,0,139)" width="27" stroke-dasharray="none" height="367" stroke="none"/>
<rect x="659" y="186" clip-path="url(#clipPath1)" fill="none" width="27" stroke-dasharray="none" height="367" stroke="black"/>
<rect x="686" y="186" clip-path="url(#clipPath1)" fill="rgb(0,0,139)" width="27" stroke-dasharray="none" height="367" stroke="none"/>
<rect x="686" y="186" clip-path="url(#clipPath1)" fill="none" width="27" stroke-dasharray="none" height="367" stroke="black"/>
<rect x="713" y="377" clip-path="url(#clipPath1)" fill="rgb(0,0,139)" width="27" stroke-dasharray="none" height="176" stroke="none"/>
<rect x="713" y="377" clip-path="url(#clipPath1)" fill="none" width="27" stroke-dasharray="none" height="176" stroke="black"/>
<rect x="740" y="190" clip-path="url(#clipPath1)" fill="rgb(0,0,139)" width="28" stroke-dasharray="none" height="363" stroke="none"/>
<rect x="740" y="190" clip-path="url(#clipPath1)" fill="none" width="28" stroke-dasharray="none" height="363" stroke="black"/>
<rect x="768" y="382" clip-path="url(#clipPath1)" fill="rgb(0,0,139)" width="27" stroke-dasharray="none" height="171" stroke="none"/>
<rect x="768" y="382" clip-path="url(#clipPath1)" fill="none" width="27" stroke-dasharray="none" height="171" stroke="black"/>
<rect x="795" y="189" clip-path="url(#clipPath1)" fill="rgb(0,0,139)" width="27" stroke-dasharray="none" height="364" stroke="none"/>
<rect x="795" y="189" clip-path="url(#clipPath1)" fill="none" width="27" stroke-dasharray="none" height="364" stroke="black"/>
<rect x="822" y="374" clip-path="url(#clipPath1)" fill="rgb(0,0,139)" width="27" stroke-dasharray="none" height="179" stroke="none"/>
<rect x="822" y="374" clip-path="url(#clipPath1)" fill="none" width="27" stroke-dasharray="none" height="179" stroke="black"/>
<rect x="849" y="208" clip-path="url(#clipPath1)" fill="rgb(0,0,139)" width="27" stroke-dasharray="none" height="345" stroke="none"/>
<rect x="849" y="208" clip-path="url(#clipPath1)" fill="none" width="27" stroke-dasharray="none" height="345" stroke="black"/>
<rect x="876" y="359" clip-path="url(#clipPath1)" fill="rgb(0,0,139)" width="27" stroke-dasharray="none" height="194" stroke="none"/>
<rect x="876" y="359" clip-path="url(#clipPath1)" fill="none" width="27" stroke-dasharray="none" height="194" stroke="black"/>
<rect x="903" y="157" clip-path="url(#clipPath1)" fill="rgb(0,0,139)" width="27" stroke-dasharray="none" height="396" stroke="none"/>
<rect x="903" y="157" clip-path="url(#clipPath1)" fill="none" width="27" stroke-dasharray="none" height="396" stroke="black"/>
<rect x="930" y="217" clip-path="url(#clipPath1)" fill="rgb(0,0,139)" width="28" stroke-dasharray="none" height="336" stroke="none"/>
<rect x="930" y="217" clip-path="url(#clipPath1)" fill="none" width="28" stroke-dasharray="none" height="336" stroke="black"/>
<rect x="958" y="374" clip-path="url(#clipPath1)" fill="rgb(0,0,139)" width="27" stroke-dasharray="none" height="179" stroke="none"/>
<rect x="958" y="374" clip-path="url(#clipPath1)" fill="none" width="27" stroke-dasharray="none" height="179" stroke="black"/>
<rect x="985" y="181" clip-path="url(#clipPath1)" fill="rgb(0,0,139)" width="27" stroke-dasharray="none" height="372" stroke="none"/>
<rect x="985" y="181" clip-path="url(#clipPath1)" fill="none" width="27" stroke-dasharray="none" height="372" stroke="black"/>
<rect x="1012" y="389" clip-path="url(#clipPath1)" fill="rgb(0,0,139)" width="27" stroke-dasharray="none" height="164" stroke="none"/>
<rect x="1012" y="389" clip-path="url(#clipPath1)" fill="none" width="27" stroke-dasharray="none" height="164" stroke="black"/>
<rect x="1039" y="167" clip-path="url(#clipPath1)" fill="rgb(0,0,139)" width="27" stroke-dasharray="none" height="386" stroke="none"/>
<rect x="1039" y="167" clip-path="url(#clipPath1)" fill="none" width="27" stroke-dasharray="none" height="386" stroke="black"/>
<rect x="1066" y="377" clip-path="url(#clipPath1)" fill="rgb(0,0,139)" width="27" stroke-dasharray="none" height="176" stroke="none"/>
<rect x="1066" y="377" clip-path="url(#clipPath1)" fill="none" width="27" stroke-dasharray="none" height="176" stroke="black"/>
<rect x="1093" y="212" clip-path="url(#clipPath1)" fill="rgb(0,0,139)" width="28" stroke-dasharray="none" height="341" stroke="none"/>
<rect x="1093" y="212" clip-path="url(#clipPath1)" fill="none" width="28" stroke-dasharray="none" height="341" stroke="black"/>
<rect x="1121" y="182" clip-path="url(#clipPath1)" fill="rgb(0,0,139)" width="27" stroke-dasharray="none" height="371" stroke="none"/>
<rect x="1121" y="182" clip-path="url(#clipPath1)" fill="none" width="27" stroke-dasharray="none" height="371" stroke="black"/>
<line clip-path="url(#clipPath1)" fill="none" x1="1148" x2="1175" y1="553" y2="553" stroke-dasharray="none" stroke="black"/>
<line clip-path="url(#clipPath1)" fill="none" x1="1175" x2="1202" y1="553" y2="553" stroke-dasharray="none" stroke="black"/>
<line clip-path="url(#clipPath1)" fill="none" x1="1202" x2="1229" y1="553" y2="553" stroke-dasharray="none" stroke="black"/>
<line clip-path="url(#clipPath1)" fill="none" x1="1229" x2="1256" y1="553" y2="553" stroke-dasharray="none" stroke="black"/>
<line clip-path="url(#clipPath1)" fill="none" x1="1256" x2="1283" y1="553" y2="553" stroke-dasharray="none" stroke="black"/>
<line clip-path="url(#clipPath1)" fill="none" x1="1283" x2="1311" y1="553" y2="553" stroke-dasharray="none" stroke="black"/>
<line clip-path="url(#clipPath1)" fill="none" x1="1311" x2="1338" y1="553" y2="553" stroke-dasharray="none" stroke="black"/>
<line clip-path="url(#clipPath1)" fill="none" x1="1338" x2="1365" y1="553" y2="553" stroke-dasharray="none" stroke="black"/>
<line clip-path="url(#clipPath1)" fill="none" x1="1365" x2="1392" y1="553" y2="553" stroke-dasharray="none" stroke="black"/>
<line clip-path="url(#clipPath1)" fill="none" x1="1392" x2="1419" y1="553" y2="553" stroke-dasharray="none" stroke="black"/>
<rect x="35" y="26" clip-path="url(#clipPath2)" fill="none" width="1402" stroke-dasharray="none" height="527" stroke="black"/>
</g>
<g text-rendering="geometricPrecision" font-size="17" font-family="'Arial'" stroke-linecap="butt">
<line clip-path="url(#clipPath2)" fill="none" x1="35" x2="1437" y1="24" y2="24"/>
<line clip-path="url(#clipPath2)" fill="none" x1="35" x2="1437" y1="555" y2="555"/>
<line clip-path="url(#clipPath2)" fill="none" x1="35" x2="35" y1="20" y2="24"/>
<line clip-path="url(#clipPath2)" fill="none" x1="35" x2="35" y1="559" y2="555"/>
<text x="33" font-size="13" y="15" clip-path="url(#clipPath2)" stroke="none" xml:space="preserve">0</text>
<text x="33" font-size="13" y="572" clip-path="url(#clipPath2)" stroke="none" xml:space="preserve">0</text>
<line clip-path="url(#clipPath2)" fill="none" x1="62" x2="62" y1="22" y2="24"/>
<line clip-path="url(#clipPath2)" fill="none" x1="62" x2="62" y1="557" y2="555"/>
<line clip-path="url(#clipPath2)" fill="none" x1="89" x2="89" y1="20" y2="24"/>
<line clip-path="url(#clipPath2)" fill="none" x1="89" x2="89" y1="559" y2="555"/>
<text x="81" font-size="13" y="15" clip-path="url(#clipPath2)" stroke="none" xml:space="preserve">200</text>
<text x="81" font-size="13" y="572" clip-path="url(#clipPath2)" stroke="none" xml:space="preserve">200</text>
<line clip-path="url(#clipPath2)" fill="none" x1="116" x2="116" y1="22" y2="24"/>
<line clip-path="url(#clipPath2)" fill="none" x1="116" x2="116" y1="557" y2="555"/>
<line clip-path="url(#clipPath2)" fill="none" x1="143" x2="143" y1="20" y2="24"/>
<line clip-path="url(#clipPath2)" fill="none" x1="143" x2="143" y1="559" y2="555"/>
<text x="135" font-size="13" y="15" clip-path="url(#clipPath2)" stroke="none" xml:space="preserve">400</text>
<text x="135" font-size="13" y="572" clip-path="url(#clipPath2)" stroke="none" xml:space="preserve">400</text>
<line clip-path="url(#clipPath2)" fill="none" x1="170" x2="170" y1="22" y2="24"/>
<line clip-path="url(#clipPath2)" fill="none" x1="170" x2="170" y1="557" y2="555"/>
<line clip-path="url(#clipPath2)" fill="none" x1="197" x2="197" y1="20" y2="24"/>
<line clip-path="url(#clipPath2)" fill="none" x1="197" x2="197" y1="559" y2="555"/>
<text x="189" font-size="13" y="15" clip-path="url(#clipPath2)" stroke="none" xml:space="preserve">600</text>
<text x="189" font-size="13" y="572" clip-path="url(#clipPath2)" stroke="none" xml:space="preserve">600</text>
<line clip-path="url(#clipPath2)" fill="none" x1="225" x2="225" y1="22" y2="24"/>
<line clip-path="url(#clipPath2)" fill="none" x1="225" x2="225" y1="557" y2="555"/>
<line clip-path="url(#clipPath2)" fill="none" x1="252" x2="252" y1="20" y2="24"/>
<line clip-path="url(#clipPath2)" fill="none" x1="252" x2="252" y1="559" y2="555"/>
<text x="244" font-size="13" y="15" clip-path="url(#clipPath2)" stroke="none" xml:space="preserve">800</text>
<text x="244" font-size="13" y="572" clip-path="url(#clipPath2)" stroke="none" xml:space="preserve">800</text>
<line clip-path="url(#clipPath2)" fill="none" x1="279" x2="279" y1="22" y2="24"/>
<line clip-path="url(#clipPath2)" fill="none" x1="279" x2="279" y1="557" y2="555"/>
<line clip-path="url(#clipPath2)" fill="none" x1="306" x2="306" y1="20" y2="24"/>
<line clip-path="url(#clipPath2)" fill="none" x1="306" x2="306" y1="559" y2="555"/>
<text x="295" font-size="13" y="15" clip-path="url(#clipPath2)" stroke="none" xml:space="preserve">1000</text>
<text x="295" font-size="13" y="572" clip-path="url(#clipPath2)" stroke="none" xml:space="preserve">1000</text>
<line clip-path="url(#clipPath2)" fill="none" x1="333" x2="333" y1="22" y2="24"/>
<line clip-path="url(#clipPath2)" fill="none" x1="333" x2="333" y1="557" y2="555"/>
<line clip-path="url(#clipPath2)" fill="none" x1="360" x2="360" y1="20" y2="24"/>
<line clip-path="url(#clipPath2)" fill="none" x1="360" x2="360" y1="559" y2="555"/>
<text x="349" font-size="13" y="15" clip-path="url(#clipPath2)" stroke="none" xml:space="preserve">1200</text>
<text x="349" font-size="13" y="572" clip-path="url(#clipPath2)" stroke="none" xml:space="preserve">1200</text>
<line clip-path="url(#clipPath2)" fill="none" x1="387" x2="387" y1="22" y2="24"/>
<line clip-path="url(#clipPath2)" fill="none" x1="387" x2="387" y1="557" y2="555"/>
<line clip-path="url(#clipPath2)" fill="none" x1="415" x2="415" y1="20" y2="24"/>
<line clip-path="url(#clipPath2)" fill="none" x1="415" x2="415" y1="559" y2="555"/>
<text x="404" font-size="13" y="15" clip-path="url(#clipPath2)" stroke="none" xml:space="preserve">1400</text>
<text x="404" font-size="13" y="572" clip-path="url(#clipPath2)" stroke="none" xml:space="preserve">1400</text>
<line clip-path="url(#clipPath2)" fill="none" x1="442" x2="442" y1="22" y2="24"/>
<line clip-path="url(#clipPath2)" fill="none" x1="442" x2="442" y1="557" y2="555"/>
<line clip-path="url(#clipPath2)" fill="none" x1="469" x2="469" y1="20" y2="24"/>
<line clip-path="url(#clipPath2)" fill="none" x1="469" x2="469" y1="559" y2="555"/>
<text x="458" font-size="13" y="15" clip-path="url(#clipPath2)" stroke="none" xml:space="preserve">1600</text>
<text x="458" font-size="13" y="572" clip-path="url(#clipPath2)" stroke="none" xml:space="preserve">1600</text>
<line clip-path="url(#clipPath2)" fill="none" x1="496" x2="496" y1="22" y2="24"/>
<line clip-path="url(#clipPath2)" fill="none" x1="496" x2="496" y1="557" y2="555"/>
<line clip-path="url(#clipPath2)" fill="none" x1="523" x2="523" y1="20" y2="24"/>
<line clip-path="url(#clipPath2)" fill="none" x1="523" x2="523" y1="559" y2="555"/>
<text x="512" font-size="13" y="15" clip-path="url(#clipPath2)" stroke="none" xml:space="preserve">1800</text>
<text x="512" font-size="13" y="572" clip-path="url(#clipPath2)" stroke="none" xml:space="preserve">1800</text>
<line clip-path="url(#clipPath2)" fill="none" x1="550" x2="550" y1="22" y2="24"/>
<line clip-path="url(#clipPath2)" fill="none" x1="550" x2="550" y1="557" y2="555"/>
<line clip-path="url(#clipPath2)" fill="none" x1="578" x2="578" y1="20" y2="24"/>
<line clip-path="url(#clipPath2)" fill="none" x1="578" x2="578" y1="559" y2="555"/>
<text x="567" font-size="13" y="15" clip-path="url(#clipPath2)" stroke="none" xml:space="preserve">2000</text>
<text x="567" font-size="13" y="572" clip-path="url(#clipPath2)" stroke="none" xml:space="preserve">2000</text>
<line clip-path="url(#clipPath2)" fill="none" x1="605" x2="605" y1="22" y2="24"/>
<line clip-path="url(#clipPath2)" fill="none" x1="605" x2="605" y1="557" y2="555"/>
<line clip-path="url(#clipPath2)" fill="none" x1="632" x2="632" y1="20" y2="24"/>
<line clip-path="url(#clipPath2)" fill="none" x1="632" x2="632" y1="559" y2="555"/>
<text x="621" font-size="13" y="15" clip-path="url(#clipPath2)" stroke="none" xml:space="preserve">2200</text>
<text x="621" font-size="13" y="572" clip-path="url(#clipPath2)" stroke="none" xml:space="preserve">2200</text>
<line clip-path="url(#clipPath2)" fill="none" x1="659" x2="659" y1="22" y2="24"/>
<line clip-path="url(#clipPath2)" fill="none" x1="659" x2="659" y1="557" y2="555"/>
<line clip-path="url(#clipPath2)" fill="none" x1="686" x2="686" y1="20" y2="24"/>
<line clip-path="url(#clipPath2)" fill="none" x1="686" x2="686" y1="559" y2="555"/>
<text x="675" font-size="13" y="15" clip-path="url(#clipPath2)" stroke="none" xml:space="preserve">2400</text>
<text x="675" font-size="13" y="572" clip-path="url(#clipPath2)" stroke="none" xml:space="preserve">2400</text>
<line clip-path="url(#clipPath2)" fill="none" x1="713" x2="713" y1="22" y2="24"/>
<line clip-path="url(#clipPath2)" fill="none" x1="713" x2="713" y1="557" y2="555"/>
<line clip-path="url(#clipPath2)" fill="none" x1="740" x2="740" y1="20" y2="24"/>
<line clip-path="url(#clipPath2)" fill="none" x1="740" x2="740" y1="559" y2="555"/>
<text x="729" font-size="13" y="15" clip-path="url(#clipPath2)" stroke="none" xml:space="preserve">2600</text>
<text x="729" font-size="13" y="572" clip-path="url(#clipPath2)" stroke="none" xml:space="preserve">2600</text>
<line clip-path="url(#clipPath2)" fill="none" x1="768" x2="768" y1="22" y2="24"/>
<line clip-path="url(#clipPath2)" fill="none" x1="768" x2="768" y1="557" y2="555"/>
<line clip-path="url(#clipPath2)" fill="none" x1="795" x2="795" y1="20" y2="24"/>
<line clip-path="url(#clipPath2)" fill="none" x1="795" x2="795" y1="559" y2="555"/>
<text x="784" font-size="13" y="15" clip-path="url(#clipPath2)" stroke="none" xml:space="preserve">2800</text>
<text x="784" font-size="13" y="572" clip-path="url(#clipPath2)" stroke="none" xml:space="preserve">2800</text>
<line clip-path="url(#clipPath2)" fill="none" x1="822" x2="822" y1="22" y2="24"/>
<line clip-path="url(#clipPath2)" fill="none" x1="822" x2="822" y1="557" y2="555"/>
<line clip-path="url(#clipPath2)" fill="none" x1="849" x2="849" y1="20" y2="24"/>
<line clip-path="url(#clipPath2)" fill="none" x1="849" x2="849" y1="559" y2="555"/>
<text x="838" font-size="13" y="15" clip-path="url(#clipPath2)" stroke="none" xml:space="preserve">3000</text>
<text x="838" font-size="13" y="572" clip-path="url(#clipPath2)" stroke="none" xml:space="preserve">3000</text>
<line clip-path="url(#clipPath2)" fill="none" x1="876" x2="876" y1="22" y2="24"/>
<line clip-path="url(#clipPath2)" fill="none" x1="876" x2="876" y1="557" y2="555"/>
<line clip-path="url(#clipPath2)" fill="none" x1="903" x2="903" y1="20" y2="24"/>
<line clip-path="url(#clipPath2)" fill="none" x1="903" x2="903" y1="559" y2="555"/>
<text x="892" font-size="13" y="15" clip-path="url(#clipPath2)" stroke="none" xml:space="preserve">3200</text>
<text x="892" font-size="13" y="572" clip-path="url(#clipPath2)" stroke="none" xml:space="preserve">3200</text>
<line clip-path="url(#clipPath2)" fill="none" x1="930" x2="930" y1="22" y2="24"/>
<line clip-path="url(#clipPath2)" fill="none" x1="930" x2="930" y1="557" y2="555"/>
<line clip-path="url(#clipPath2)" fill="none" x1="958" x2="958" y1="20" y2="24"/>
<line clip-path="url(#clipPath2)" fill="none" x1="958" x2="958" y1="559" y2="555"/>
<text x="947" font-size="13" y="15" clip-path="url(#clipPath2)" stroke="none" xml:space="preserve">3400</text>
<text x="947" font-size="13" y="572" clip-path="url(#clipPath2)" stroke="none" xml:space="preserve">3400</text>
<line clip-path="url(#clipPath2)" fill="none" x1="985" x2="985" y1="22" y2="24"/>
<line clip-path="url(#clipPath2)" fill="none" x1="985" x2="985" y1="557" y2="555"/>
<line clip-path="url(#clipPath2)" fill="none" x1="1012" x2="1012" y1="20" y2="24"/>
<line clip-path="url(#clipPath2)" fill="none" x1="1012" x2="1012" y1="559" y2="555"/>
<text x="1001" font-size="13" y="15" clip-path="url(#clipPath2)" stroke="none" xml:space="preserve">3600</text>
<text x="1001" font-size="13" y="572" clip-path="url(#clipPath2)" stroke="none" xml:space="preserve">3600</text>
<line clip-path="url(#clipPath2)" fill="none" x1="1039" x2="1039" y1="22" y2="24"/>
<line clip-path="url(#clipPath2)" fill="none" x1="1039" x2="1039" y1="557" y2="555"/>
<line clip-path="url(#clipPath2)" fill="none" x1="1066" x2="1066" y1="20" y2="24"/>
<line clip-path="url(#clipPath2)" fill="none" x1="1066" x2="1066" y1="559" y2="555"/>
<text x="1055" font-size="13" y="15" clip-path="url(#clipPath2)" stroke="none" xml:space="preserve">3800</text>
<text x="1055" font-size="13" y="572" clip-path="url(#clipPath2)" stroke="none" xml:space="preserve">3800</text>
<line clip-path="url(#clipPath2)" fill="none" x1="1093" x2="1093" y1="22" y2="24"/>
<line clip-path="url(#clipPath2)" fill="none" x1="1093" x2="1093" y1="557" y2="555"/>
<line clip-path="url(#clipPath2)" fill="none" x1="1121" x2="1121" y1="20" y2="24"/>
<line clip-path="url(#clipPath2)" fill="none" x1="1121" x2="1121" y1="559" y2="555"/>
<text x="1110" font-size="13" y="15" clip-path="url(#clipPath2)" stroke="none" xml:space="preserve">4000</text>
<text x="1110" font-size="13" y="572" clip-path="url(#clipPath2)" stroke="none" xml:space="preserve">4000</text>
<line clip-path="url(#clipPath2)" fill="none" x1="1148" x2="1148" y1="22" y2="24"/>
<line clip-path="url(#clipPath2)" fill="none" x1="1148" x2="1148" y1="557" y2="555"/>
<line clip-path="url(#clipPath2)" fill="none" x1="1175" x2="1175" y1="20" y2="24"/>
<line clip-path="url(#clipPath2)" fill="none" x1="1175" x2="1175" y1="559" y2="555"/>
<text x="1164" font-size="13" y="15" clip-path="url(#clipPath2)" stroke="none" xml:space="preserve">4200</text>
<text x="1164" font-size="13" y="572" clip-path="url(#clipPath2)" stroke="none" xml:space="preserve">4200</text>
<line clip-path="url(#clipPath2)" fill="none" x1="1202" x2="1202" y1="22" y2="24"/>
<line clip-path="url(#clipPath2)" fill="none" x1="1202" x2="1202" y1="557" y2="555"/>
<line clip-path="url(#clipPath2)" fill="none" x1="1229" x2="1229" y1="20" y2="24"/>
<line clip-path="url(#clipPath2)" fill="none" x1="1229" x2="1229" y1="559" y2="555"/>
<text x="1218" font-size="13" y="15" clip-path="url(#clipPath2)" stroke="none" xml:space="preserve">4400</text>
<text x="1218" font-size="13" y="572" clip-path="url(#clipPath2)" stroke="none" xml:space="preserve">4400</text>
<line clip-path="url(#clipPath2)" fill="none" x1="1256" x2="1256" y1="22" y2="24"/>
<line clip-path="url(#clipPath2)" fill="none" x1="1256" x2="1256" y1="557" y2="555"/>
<line clip-path="url(#clipPath2)" fill="none" x1="1283" x2="1283" y1="20" y2="24"/>
<line clip-path="url(#clipPath2)" fill="none" x1="1283" x2="1283" y1="559" y2="555"/>
<text x="1272" font-size="13" y="15" clip-path="url(#clipPath2)" stroke="none" xml:space="preserve">4600</text>
<text x="1272" font-size="13" y="572" clip-path="url(#clipPath2)" stroke="none" xml:space="preserve">4600</text>
<line clip-path="url(#clipPath2)" fill="none" x1="1311" x2="1311" y1="22" y2="24"/>
<line clip-path="url(#clipPath2)" fill="none" x1="1311" x2="1311" y1="557" y2="555"/>
<line clip-path="url(#clipPath2)" fill="none" x1="1338" x2="1338" y1="20" y2="24"/>
<line clip-path="url(#clipPath2)" fill="none" x1="1338" x2="1338" y1="559" y2="555"/>
<text x="1327" font-size="13" y="15" clip-path="url(#clipPath2)" stroke="none" xml:space="preserve">4800</text>
<text x="1327" font-size="13" y="572" clip-path="url(#clipPath2)" stroke="none" xml:space="preserve">4800</text>
<line clip-path="url(#clipPath2)" fill="none" x1="1365" x2="1365" y1="22" y2="24"/>
<line clip-path="url(#clipPath2)" fill="none" x1="1365" x2="1365" y1="557" y2="555"/>
<line clip-path="url(#clipPath2)" fill="none" x1="1392" x2="1392" y1="20" y2="24"/>
<line clip-path="url(#clipPath2)" fill="none" x1="1392" x2="1392" y1="559" y2="555"/>
<text x="1381" font-size="13" y="15" clip-path="url(#clipPath2)" stroke="none" xml:space="preserve">5000</text>
<text x="1381" font-size="13" y="572" clip-path="url(#clipPath2)" stroke="none" xml:space="preserve">5000</text>
<line clip-path="url(#clipPath2)" fill="none" x1="1419" x2="1419" y1="22" y2="24"/>
<line clip-path="url(#clipPath2)" fill="none" x1="1419" x2="1419" y1="557" y2="555"/>
<line clip-path="url(#clipPath2)" fill="none" x1="33" x2="33" y1="26" y2="553"/>
<line clip-path="url(#clipPath2)" fill="none" x1="1439" x2="1439" y1="26" y2="553"/>
<line clip-path="url(#clipPath2)" fill="none" x1="29" x2="33" y1="553" y2="553"/>
<line clip-path="url(#clipPath2)" fill="none" x1="1443" x2="1439" y1="553" y2="553"/>
<text x="22" font-size="13" y="557" clip-path="url(#clipPath2)" stroke="none" xml:space="preserve">0</text>
<text x="1446" font-size="13" y="557" clip-path="url(#clipPath2)" stroke="none" xml:space="preserve">0</text>
<line clip-path="url(#clipPath2)" fill="none" x1="31" x2="33" y1="540" y2="540"/>
<line clip-path="url(#clipPath2)" fill="none" x1="1441" x2="1439" y1="540" y2="540"/>
<line clip-path="url(#clipPath2)" fill="none" x1="31" x2="33" y1="527" y2="527"/>
<line clip-path="url(#clipPath2)" fill="none" x1="1441" x2="1439" y1="527" y2="527"/>
<line clip-path="url(#clipPath2)" fill="none" x1="31" x2="33" y1="515" y2="515"/>
<line clip-path="url(#clipPath2)" fill="none" x1="1441" x2="1439" y1="515" y2="515"/>
<line clip-path="url(#clipPath2)" fill="none" x1="31" x2="33" y1="502" y2="502"/>
<line clip-path="url(#clipPath2)" fill="none" x1="1441" x2="1439" y1="502" y2="502"/>
<line clip-path="url(#clipPath2)" fill="none" x1="29" x2="33" y1="490" y2="490"/>
<line clip-path="url(#clipPath2)" fill="none" x1="1443" x2="1439" y1="490" y2="490"/>
<text x="10" font-size="13" y="494" clip-path="url(#clipPath2)" stroke="none" xml:space="preserve">100</text>
<text x="1446" font-size="13" y="494" clip-path="url(#clipPath2)" stroke="none" xml:space="preserve">100</text>
<line clip-path="url(#clipPath2)" fill="none" x1="31" x2="33" y1="477" y2="477"/>
<line clip-path="url(#clipPath2)" fill="none" x1="1441" x2="1439" y1="477" y2="477"/>
<line clip-path="url(#clipPath2)" fill="none" x1="31" x2="33" y1="465" y2="465"/>
<line clip-path="url(#clipPath2)" fill="none" x1="1441" x2="1439" y1="465" y2="465"/>
<line clip-path="url(#clipPath2)" fill="none" x1="31" x2="33" y1="452" y2="452"/>
<line clip-path="url(#clipPath2)" fill="none" x1="1441" x2="1439" y1="452" y2="452"/>
<line clip-path="url(#clipPath2)" fill="none" x1="31" x2="33" y1="440" y2="440"/>
<line clip-path="url(#clipPath2)" fill="none" x1="1441" x2="1439" y1="440" y2="440"/>
<line clip-path="url(#clipPath2)" fill="none" x1="29" x2="33" y1="427" y2="427"/>
<line clip-path="url(#clipPath2)" fill="none" x1="1443" x2="1439" y1="427" y2="427"/>
<text x="10" font-size="13" y="431" clip-path="url(#clipPath2)" stroke="none" xml:space="preserve">200</text>
<text x="1446" font-size="13" y="431" clip-path="url(#clipPath2)" stroke="none" xml:space="preserve">200</text>
<line clip-path="url(#clipPath2)" fill="none" x1="31" x2="33" y1="415" y2="415"/>
<line clip-path="url(#clipPath2)" fill="none" x1="1441" x2="1439" y1="415" y2="415"/>
<line clip-path="url(#clipPath2)" fill="none" x1="31" x2="33" y1="402" y2="402"/>
<line clip-path="url(#clipPath2)" fill="none" x1="1441" x2="1439" y1="402" y2="402"/>
<line clip-path="url(#clipPath2)" fill="none" x1="31" x2="33" y1="390" y2="390"/>
<line clip-path="url(#clipPath2)" fill="none" x1="1441" x2="1439" y1="390" y2="390"/>
<line clip-path="url(#clipPath2)" fill="none" x1="31" x2="33" y1="377" y2="377"/>
<line clip-path="url(#clipPath2)" fill="none" x1="1441" x2="1439" y1="377" y2="377"/>
<line clip-path="url(#clipPath2)" fill="none" x1="29" x2="33" y1="365" y2="365"/>
<line clip-path="url(#clipPath2)" fill="none" x1="1443" x2="1439" y1="365" y2="365"/>
<text x="10" font-size="13" y="369" clip-path="url(#clipPath2)" stroke="none" xml:space="preserve">300</text>
<text x="1446" font-size="13" y="369" clip-path="url(#clipPath2)" stroke="none" xml:space="preserve">300</text>
<line clip-path="url(#clipPath2)" fill="none" x1="31" x2="33" y1="352" y2="352"/>
<line clip-path="url(#clipPath2)" fill="none" x1="1441" x2="1439" y1="352" y2="352"/>
<line clip-path="url(#clipPath2)" fill="none" x1="31" x2="33" y1="340" y2="340"/>
<line clip-path="url(#clipPath2)" fill="none" x1="1441" x2="1439" y1="340" y2="340"/>
<line clip-path="url(#clipPath2)" fill="none" x1="31" x2="33" y1="327" y2="327"/>
<line clip-path="url(#clipPath2)" fill="none" x1="1441" x2="1439" y1="327" y2="327"/>
<line clip-path="url(#clipPath2)" fill="none" x1="31" x2="33" y1="315" y2="315"/>
<line clip-path="url(#clipPath2)" fill="none" x1="1441" x2="1439" y1="315" y2="315"/>
<line clip-path="url(#clipPath2)" fill="none" x1="29" x2="33" y1="302" y2="302"/>
<line clip-path="url(#clipPath2)" fill="none" x1="1443" x2="1439" y1="302" y2="302"/>
<text x="10" font-size="13" y="306" clip-path="url(#clipPath2)" stroke="none" xml:space="preserve">400</text>
<text x="1446" font-size="13" y="306" clip-path="url(#clipPath2)" stroke="none" xml:space="preserve">400</text>
<line clip-path="url(#clipPath2)" fill="none" x1="31" x2="33" y1="290" y2="290"/>
<line clip-path="url(#clipPath2)" fill="none" x1="1441" x2="1439" y1="290" y2="290"/>
<line clip-path="url(#clipPath2)" fill="none" x1="31" x2="33" y1="277" y2="277"/>
<line clip-path="url(#clipPath2)" fill="none" x1="1441" x2="1439" y1="277" y2="277"/>
<line clip-path="url(#clipPath2)" fill="none" x1="31" x2="33" y1="265" y2="265"/>
<line clip-path="url(#clipPath2)" fill="none" x1="1441" x2="1439" y1="265" y2="265"/>
<line clip-path="url(#clipPath2)" fill="none" x1="31" x2="33" y1="252" y2="252"/>
<line clip-path="url(#clipPath2)" fill="none" x1="1441" x2="1439" y1="252" y2="252"/>
<line clip-path="url(#clipPath2)" fill="none" x1="29" x2="33" y1="240" y2="240"/>
<line clip-path="url(#clipPath2)" fill="none" x1="1443" x2="1439" y1="240" y2="240"/>
<text x="10" font-size="13" y="244" clip-path="url(#clipPath2)" stroke="none" xml:space="preserve">500</text>
<text x="1446" font-size="13" y="244" clip-path="url(#clipPath2)" stroke="none" xml:space="preserve">500</text>
<line clip-path="url(#clipPath2)" fill="none" x1="31" x2="33" y1="227" y2="227"/>
<line clip-path="url(#clipPath2)" fill="none" x1="1441" x2="1439" y1="227" y2="227"/>
<line clip-path="url(#clipPath2)" fill="none" x1="31" x2="33" y1="215" y2="215"/>
<line clip-path="url(#clipPath2)" fill="none" x1="1441" x2="1439" y1="215" y2="215"/>
<line clip-path="url(#clipPath2)" fill="none" x1="31" x2="33" y1="202" y2="202"/>
<line clip-path="url(#clipPath2)" fill="none" x1="1441" x2="1439" y1="202" y2="202"/>
<line clip-path="url(#clipPath2)" fill="none" x1="31" x2="33" y1="190" y2="190"/>
<line clip-path="url(#clipPath2)" fill="none" x1="1441" x2="1439" y1="190" y2="190"/>
<line clip-path="url(#clipPath2)" fill="none" x1="29" x2="33" y1="177" y2="177"/>
<line clip-path="url(#clipPath2)" fill="none" x1="1443" x2="1439" y1="177" y2="177"/>
<text x="10" font-size="13" y="181" clip-path="url(#clipPath2)" stroke="none" xml:space="preserve">600</text>
<text x="1446" font-size="13" y="181" clip-path="url(#clipPath2)" stroke="none" xml:space="preserve">600</text>
<line clip-path="url(#clipPath2)" fill="none" x1="31" x2="33" y1="165" y2="165"/>
<line clip-path="url(#clipPath2)" fill="none" x1="1441" x2="1439" y1="165" y2="165"/>
<line clip-path="url(#clipPath2)" fill="none" x1="31" x2="33" y1="152" y2="152"/>
<line clip-path="url(#clipPath2)" fill="none" x1="1441" x2="1439" y1="152" y2="152"/>
<line clip-path="url(#clipPath2)" fill="none" x1="31" x2="33" y1="140" y2="140"/>
<line clip-path="url(#clipPath2)" fill="none" x1="1441" x2="1439" y1="140" y2="140"/>
<line clip-path="url(#clipPath2)" fill="none" x1="31" x2="33" y1="127" y2="127"/>
<line clip-path="url(#clipPath2)" fill="none" x1="1441" x2="1439" y1="127" y2="127"/>
<line clip-path="url(#clipPath2)" fill="none" x1="29" x2="33" y1="115" y2="115"/>
<line clip-path="url(#clipPath2)" fill="none" x1="1443" x2="1439" y1="115" y2="115"/>
<text x="10" font-size="13" y="119" clip-path="url(#clipPath2)" stroke="none" xml:space="preserve">700</text>
<text x="1446" font-size="13" y="119" clip-path="url(#clipPath2)" stroke="none" xml:space="preserve">700</text>
<line clip-path="url(#clipPath2)" fill="none" x1="31" x2="33" y1="102" y2="102"/>
<line clip-path="url(#clipPath2)" fill="none" x1="1441" x2="1439" y1="102" y2="102"/>
<line clip-path="url(#clipPath2)" fill="none" x1="31" x2="33" y1="90" y2="90"/>
<line clip-path="url(#clipPath2)" fill="none" x1="1441" x2="1439" y1="90" y2="90"/>
<line clip-path="url(#clipPath2)" fill="none" x1="31" x2="33" y1="77" y2="77"/>
<line clip-path="url(#clipPath2)" fill="none" x1="1441" x2="1439" y1="77" y2="77"/>
<line clip-path="url(#clipPath2)" fill="none" x1="31" x2="33" y1="65" y2="65"/>
<line clip-path="url(#clipPath2)" fill="none" x1="1441" x2="1439" y1="65" y2="65"/>
<line clip-path="url(#clipPath2)" fill="none" x1="29" x2="33" y1="52" y2="52"/>
<line clip-path="url(#clipPath2)" fill="none" x1="1443" x2="1439" y1="52" y2="52"/>
<text x="10" font-size="13" y="56" clip-path="url(#clipPath2)" stroke="none" xml:space="preserve">800</text>
<text x="1446" font-size="13" y="56" clip-path="url(#clipPath2)" stroke="none" xml:space="preserve">800</text>
<line clip-path="url(#clipPath2)" fill="none" x1="31" x2="33" y1="40" y2="40"/>
<line clip-path="url(#clipPath2)" fill="none" x1="1441" x2="1439" y1="40" y2="40"/>
<line clip-path="url(#clipPath2)" fill="none" x1="31" x2="33" y1="27" y2="27"/>
<line clip-path="url(#clipPath2)" fill="none" x1="1441" x2="1439" y1="27" y2="27"/>
</g>
</g>
</svg>
